HIERARCHY
ROOT Hips
{
  OFFSET 46.2181 82.2798 5.63504
  CHANNELS 6 Xposition Yposition Zposition Zrotation Xrotation Yrotation
  JOINT spine
  {
    OFFSET 0 6.24479 0.359107
    CHANNELS 3 Zrotation Xrotation Yrotation
    JOINT spine1
    {
      OFFSET 0 9.06941 0
      CHANNELS 3 Zrotation Xrotation Yrotation
      JOINT spine2
      {
        OFFSET 0 8.69014 0
        CHANNELS 3 Zrotation Xrotation Yrotation
        JOINT Neck
        {
          OFFSET 0 22.3112 1.06372
          CHANNELS 3 Zrotation Xrotation Yrotation
          JOINT Head
          {
            OFFSET 0 6.74081 0
            CHANNELS 3 Zrotation Xrotation Yrotation
            End Site
            {
              OFFSET 0 16.3165 -5.38097
            }
          }
        }
        JOINT RightShoulder
        {
          OFFSET -3.65916 9.38468 -0.509514
          CHANNELS 3 Zrotation Xrotation Yrotation
          JOINT RightArm
          {
            OFFSET 0 12.3089 0
            CHANNELS 3 Zrotation Xrotation Yrotation
            JOINT RightArmRoll
            {
              OFFSET 0 6.21375 0
              CHANNELS 3 Zrotation Xrotation Yrotation
              JOINT RightForeArm
              {
                OFFSET 0 18.0985 0
                CHANNELS 3 Zrotation Xrotation Yrotation
                JOINT RightForeArmRoll
                {
                  OFFSET 0 6.9728 0
                  CHANNELS 3 Zrotation Xrotation Yrotation
                  JOINT RightHand
                  {
                    OFFSET 0 13.9929 0
                    CHANNELS 3 Zrotation Xrotation Yrotation
                    End Site
                    {
                      OFFSET 0 0 0
                    }
                  }
                }
              }
            }
          }
        }
        JOINT LeftShoulder
        {
          OFFSET 3.65916 9.38468 -0.509514
          CHANNELS 3 Zrotation Xrotation Yrotation
          JOINT LeftArm
          {
            OFFSET 0 12.3089 0
            CHANNELS 3 Zrotation Xrotation Yrotation
            JOINT LeftArmRoll
            {
              OFFSET 0 6.21375 0
              CHANNELS 3 Zrotation Xrotation Yrotation
              JOINT LeftForeArm
              {
                OFFSET 0 18.0985 0
                CHANNELS 3 Zrotation Xrotation Yrotation
                JOINT LeftForeArmRoll
                {
                  OFFSET 0 6.97279 0
                  CHANNELS 3 Zrotation Xrotation Yrotation
                  JOINT LeftHand
                  {
                    OFFSET 0 13.9929 0
                    CHANNELS 3 Zrotation Xrotation Yrotation
                    End Site
                    {
                      OFFSET 0 0 0
                    }
                  }
                }
              }
            }
          }
        }
      }
    }
  }
  JOINT RightUpLeg
  {
    OFFSET -5.53515 -1.015 -0.851454
    CHANNELS 3 Zrotation Xrotation Yrotation
    JOINT RightUpLegRoll
    {
      OFFSET 0 16.4075 0
      CHANNELS 3 Zrotation Xrotation Yrotation
      JOINT RightLeg
      {
        OFFSET 0 -20.3181 0
        CHANNELS 3 Zrotation Xrotation Yrotation
        JOINT RightLegRoll
        {
          OFFSET 0 20.3846 0
          CHANNELS 3 Zrotation Xrotation Yrotation
          JOINT RightFoot
          {
            OFFSET 0 16.9668 0
            CHANNELS 3 Zrotation Xrotation Yrotation
            JOINT RightToeBase
            {
              OFFSET 0 14.1834 0
              CHANNELS 3 Zrotation Xrotation Yrotation
              End Site
              {
                OFFSET 0.0060118 6.86889 -0.791746
              }
            }
          }
        }
      }
    }
  }
  JOINT LeftUpLeg
  {
    OFFSET 5.53515 -1.015 -0.851454
    CHANNELS 3 Zrotation Xrotation Yrotation
    JOINT LeftUpLegRoll
    {
      OFFSET 0 16.4076 0
      CHANNELS 3 Zrotation Xrotation Yrotation
      JOINT LeftLeg
      {
        OFFSET 0 20.3181 0
        CHANNELS 3 Zrotation Xrotation Yrotation
        JOINT LeftLegRoll
        {
          OFFSET 0 20.5731 0
          CHANNELS 3 Zrotation Xrotation Yrotation
          JOINT LeftFoot
          {
            OFFSET 0 16.7783 0
            CHANNELS 3 Zrotation Xrotation Yrotation
            JOINT LeftToeBase
            {
              OFFSET 0 14.1834 0
              CHANNELS 3 Zrotation Xrotation Yrotation
              End Site
              {
                OFFSET -0.0269423 6.86889 -0.791746
              }
            }
          }
        }
      }
    }
  }
}
MOTION
Frames: 14
Frame Time: 0.00208333
42.3948 83.7248 5.50032 -1.25339 4.7715 5.57737 0.112625 -1.03779 -0.0856025 0.218605 1.91372 -0.191436 0.227359 3.55878 -0.195549 3.36245 17.8113 11.2011 -15.4801 4.80209 11.8296 67.0362 -1.19522 -1.55527 111.584 18.2372 -28.118 2.38542e-015 -1.59028e-015 3.18055e-015 28.1749 44.2285 -12.4986 -5.9447e-006 1.55864e-005 -3 8.0293 -4.95139 0.697595 -60.9809 -5.08791 3.24991 -120.69 19.8683 27.6058 7.52188e-006 -1.07262e-006 -6.94488e-007 -25.5132 49.7358 14.0978 1.4649e-005 2.64687e-006 2.99999 -8.02894 -4.95123 -0.697552 177.082 15.4991 0.499396 180 -1.52572e-005 179.186 177.518 13.8166 179.4 -3.40002e-006 -2.58338e-006 0.112341 -16.7852 67.2924 18.9666 8.13514 25.2327 -3.47464 -171.07 12.3583 -2.62252 4.54188e-006 -4.6773e-006 -0.591561 0.685245 -10.4626 1.39827 2.20926e-006 -2.10354e-006 0.354285 11.2189 66.272 -18.3967 -8.13645 25.2408 3.48288 
42.3844 83.7222 5.50658 -1.25268 4.76709 5.58935 0.11362 -1.03872 -0.084993 0.221032 1.91351 -0.189775 0.229317 3.55857 -0.193905 3.327 17.8227 11.2435 -15.4743 4.79052 11.8584 67.025 -1.18917 -1.55094 111.587 18.2446 -28.1574 5.56597e-015 7.95139e-016 -6.36111e-015 28.1875 44.2578 -12.5132 -5.9447e-006 1.55864e-005 -3 8.0293 -4.95139 0.697595 -60.998 -5.08797 3.25102 -120.722 19.876 27.6356 7.52188e-006 -1.07262e-006 -6.94488e-007 -25.5298 49.7287 14.1043 1.4649e-005 2.64687e-006 2.99999 -8.02894 -4.95123 -0.697552 177.095 15.5033 0.493785 180 -1.52572e-005 179.186 177.515 13.8293 179.401 -3.40002e-006 -2.58338e-006 0.112341 -16.7804 67.2886 18.9649 8.13514 25.2327 -3.47464 -171.058 12.3681 -2.63039 4.54188e-006 -4.6773e-006 -0.591508 0.684786 -10.4801 1.39924 2.20926e-006 -2.10354e-006 0.354311 11.2135 66.2739 -18.4003 -8.13645 25.2408 3.48288 
42.3781 83.7176 5.49419 -1.25216 4.76279 5.60127 0.114639 -1.03969 -0.0843593 0.223522 1.91331 -0.188048 0.231321 3.55837 -0.192195 3.29149 17.8339 11.285 -15.4687 4.77942 11.8864 67.0137 -1.18276 -1.54641 111.589 18.2519 -28.1974 3.97569e-015 7.95139e-016 -0 28.2004 44.2876 -12.528 -5.9447e-006 1.55864e-005 -3 8.0293 -4.95139 0.697595 -61.0148 -5.08824 3.25224 -120.754 19.8836 27.6648 7.52188e-006 -1.07262e-006 -6.94488e-007 -25.5458 49.7221 14.1108 1.4649e-005 2.64687e-006 2.99999 -8.02894 -4.95123 -0.697552 177.108 15.5076 0.488247 180 -1.52572e-005 179.186 177.512 13.8418 179.402 -3.40002e-006 -2.58338e-006 0.112341 -16.7753 67.2846 18.963 8.13514 25.2327 -3.47464 -171.045 12.3784 -2.63835 4.54188e-006 -4.6773e-006 -0.591429 0.684372 -10.4979 1.40027 2.20926e-006 -2.10354e-006 0.35432 11.2076 66.2759 -18.4041 -8.13645 25.2408 3.48288 
42.361 83.7154 5.49809 -1.25179 4.75855 5.61316 0.115675 -1.04067 -0.0837085 0.226057 1.91312 -0.186275 0.233358 3.55818 -0.190438 3.25593 17.8449 11.326 -15.4631 4.76863 11.9138 67.0023 -1.17611 -1.54174 111.592 18.2592 -28.2379 -9.54166e-015 -7.95139e-015 -6.36111e-015 28.2134 44.3178 -12.543 -5.9447e-006 1.55864e-005 -3 8.0293 -4.95139 0.697595 -61.0315 -5.08868 3.25355 -120.788 19.8912 27.6934 7.52188e-006 -1.07262e-006 -6.94488e-007 -25.5613 49.7159 14.1173 1.4649e-005 2.64687e-006 2.99999 -8.02894 -4.95123 -0.697552 177.121 15.5122 0.482761 180 -1.52572e-005 179.186 177.509 13.8544 179.402 -3.40002e-006 -2.58338e-006 0.112341 -16.7702 67.2805 18.9611 8.13514 25.2327 -3.47464 -171.033 12.3889 -2.64637 4.54188e-006 -4.6773e-006 -0.591332 0.683991 -10.5158 1.40133 2.20926e-006 -2.10354e-006 0.354318 11.2013 66.2778 -18.4079 -8.13645 25.2408 3.48288 
42.3466 83.7154 5.5208 -1.2515 4.75436 5.62502 0.11672 -1.04168 -0.0830481 0.228618 1.91294 -0.184475 0.235413 3.558 -0.188656 3.22033 17.8558 11.3666 -15.4576 4.75804 11.941 66.9908 -1.16932 -1.53699 111.594 18.2665 -28.2787 7.95139e-015 3.18055e-015 -0 28.2266 44.3483 -12.5581 -5.9447e-006 1.55864e-005 -3 8.0293 -4.95139 0.697595 -61.0481 -5.0892 3.2549 -120.821 19.8988 27.7218 7.52188e-006 -1.07262e-006 -6.94488e-007 -25.5766 49.7098 14.1237 1.4649e-005 2.64687e-006 2.99999 -8.02894 -4.95123 -0.697552 177.135 15.5168 0.477303 180 -1.52572e-005 179.186 177.505 13.8669 179.403 -3.40002e-006 -2.58338e-006 0.112341 -16.7649 67.2763 18.9592 8.13514 25.2327 -3.47464 -171.021 12.3996 -2.65444 4.54188e-006 -4.6773e-006 -0.591224 0.683628 -10.5338 1.40242 2.20926e-006 -2.10354e-006 0.354309 11.1948 66.2796 -18.4118 -8.13645 25.2408 3.48288 
42.3315 83.7109 5.51481 -1.25123 4.75018 5.63687 0.117768 -1.04268 -0.0823852 0.231185 1.91275 -0.182669 0.237473 3.55781 -0.186867 3.18471 17.8666 11.4072 -15.4521 4.74749 11.968 66.9792 -1.1625 -1.53221 111.596 18.2738 -28.3195 6.36111e-015 3.97569e-015 -0 28.2398 44.3787 -12.5733 -5.9447e-006 1.55864e-005 -3 8.0293 -4.95139 0.697595 -61.0646 -5.08975 3.25627 -120.854 19.9064 27.7501 7.52188e-006 -1.07262e-006 -6.94488e-007 -25.5919 49.7038 14.1301 1.4649e-005 2.64687e-006 2.99999 -8.02894 -4.95123 -0.697552 177.148 15.5214 0.471853 180 -1.52572e-005 179.186 177.501 13.8794 179.404 -3.40002e-006 -2.58338e-006 0.112341 -16.7596 67.2721 18.9573 8.13514 25.2327 -3.47464 -171.008 12.4104 -2.66251 4.54188e-006 -4.6773e-006 -0.591114 0.68327 -10.5518 1.4035 2.20926e-006 -2.10354e-006 0.354299 11.1882 66.2815 -18.4156 -8.13645 25.2408 3.48288 
42.3269 83.7028 5.47612 -1.25091 4.74598 5.64874 0.118811 -1.04368 -0.0817272 0.233739 1.91256 -0.180876 0.239523 3.55762 -0.185091 3.14908 17.8775 11.4479 -15.4465 4.73685 11.9952 66.9677 -1.15574 -1.52748 111.598 18.281 -28.3602 -6.36111e-015 -4.77083e-015 -0 28.253 44.4091 -12.5885 -5.9447e-006 1.55864e-005 -3 8.0293 -4.95139 0.697595 -61.0812 -5.09025 3.25761 -120.887 19.914 27.7786 7.52188e-006 -1.07262e-006 -6.94488e-007 -25.6072 49.6977 14.1365 1.4649e-005 2.64687e-006 2.99999 -8.02894 -4.95123 -0.697552 177.162 15.526 0.466387 180 -1.52572e-005 179.186 177.498 13.892 179.405 -3.40002e-006 -2.58338e-006 0.112341 -16.7543 67.2679 18.9554 8.13514 25.2327 -3.47464 -170.995 12.421 -2.67057 4.54188e-006 -4.6773e-006 -0.591009 0.682904 -10.5698 1.40458 2.20926e-006 -2.10354e-006 0.354292 11.1817 66.2834 -18.4194 -8.13645 25.2408 3.48288 
42.313 83.6998 5.48831 -1.2505 4.74173 5.66063 0.119842 -1.04466 -0.0810813 0.236261 1.91237 -0.179116 0.241551 3.55743 -0.183348 3.11345 17.8884 11.4891 -15.4409 4.72598 12.0228 66.9563 -1.14916 -1.52284 111.601 18.2882 -28.4006 -7.95139e-015 -1.03368e-014 -1.27222e-014 28.2661 44.4392 -12.6035 -5.9447e-006 1.55864e-005 -3 8.0293 -4.95139 0.697595 -61.0979 -5.09064 3.25889 -120.92 19.9216 27.8074 7.52188e-006 -1.07262e-006 -6.94488e-007 -25.6229 49.6914 14.143 1.4649e-005 2.64687e-006 2.99999 -8.02894 -4.95123 -0.697552 177.175 15.5305 0.460885 180 -1.52572e-005 179.186 177.495 13.9045 179.406 -3.40002e-006 -2.58338e-006 0.112341 -16.7492 67.2639 18.9535 8.13514 25.2327 -3.47464 -170.983 12.4315 -2.67858 4.54188e-006 -4.6773e-006 -0.590918 0.682516 -10.5877 1.40563 2.20926e-006 -2.10354e-006 0.354293 11.1755 66.2853 -18.4232 -8.13645 25.2408 3.48288 
42.2901 83.7 5.51674 -1.24991 4.7374 5.67257 0.120854 -1.04561 -0.0804548 0.238733 1.91217 -0.177409 0.243541 3.55723 -0.181658 3.07784 17.8996 11.5309 -15.4351 4.71474 12.051 66.9451 -1.14286 -1.51837 111.604 18.2955 -28.4404 9.54166e-015 6.36111e-015 -0 28.279 44.4688 -12.6184 -5.9447e-006 1.55864e-005 -3 8.0293 -4.95139 0.697595 -61.1149 -5.09085 3.26008 -120.953 19.9292 27.8368 7.52188e-006 -1.07262e-006 -6.94488e-007 -25.639 49.6846 14.1495 1.4649e-005 2.64687e-006 2.99999 -8.02894 -4.95123 -0.697552 177.188 15.5348 0.455324 180 -1.52572e-005 179.186 177.491 13.9171 179.407 -3.40002e-006 -2.58338e-006 0.112341 -16.7442 67.2599 18.9517 8.13514 25.2327 -3.47464 -170.971 12.4416 -2.68651 4.54188e-006 -4.6773e-006 -0.590846 0.682093 -10.6053 1.40665 2.20926e-006 -2.10354e-006 0.354308 11.1698 66.2872 -18.427 -8.13645 25.2408 3.48288 
42.2781 83.7068 5.50595 -1.24909 4.73295 5.68457 0.12184 -1.04653 -0.079855 0.241134 1.91195 -0.175774 0.24548 3.55701 -0.180039 3.04226 17.9111 11.5737 -15.4293 4.703 12.0802 66.934 -1.13694 -1.51413 111.607 18.3027 -28.4796 -8.74653e-015 -8.74653e-015 -3.18055e-015 28.2917 44.4978 -12.633 -5.9447e-006 1.55864e-005 -3 8.0293 -4.95139 0.697595 -61.1321 -5.09081 3.26113 -120.985 19.9368 27.8669 7.52188e-006 -1.07262e-006 -6.94488e-007 -25.6558 49.6773 14.156 1.4649e-005 2.64687e-006 2.99999 -8.02894 -4.95123 -0.697552 177.201 15.5389 0.449682 180 -1.52572e-005 179.186 177.489 13.9297 179.407 -3.40002e-006 -2.58338e-006 0.112341 -16.7394 67.2561 18.95 8.13514 25.2327 -3.47464 -170.959 12.4512 -2.69435 4.54188e-006 -4.6773e-006 -0.590804 0.681621 -10.6227 1.40761 2.20926e-006 -2.10354e-006 0.35434 11.1646 66.2892 -18.4306 -8.13645 25.2408 3.48288 
42.2613 83.7036 5.52482 -1.24799 4.72835 5.69664 0.122792 -1.0474 -0.0792891 0.243447 1.91172 -0.174231 0.247354 3.55678 -0.178513 3.00671 17.9229 11.6176 -15.4232 4.69062 12.1104 66.9232 -1.13151 -1.51017 111.61 18.3099 -28.5178 7.95139e-016 -3.97569e-015 3.18055e-015 28.3041 44.526 -12.6472 -5.9447e-006 1.55864e-005 -3 8.0293 -4.95139 0.697595 -61.1496 -5.09046 3.26202 -121.017 19.9444 27.898 7.52188e-006 -1.07262e-006 -6.94488e-007 -25.6734 49.6693 14.1627 1.4649e-005 2.64687e-006 2.99999 -8.02894 -4.95123 -0.697552 177.214 15.5428 0.443936 180 -1.52572e-005 179.186 177.486 13.9424 179.408 -3.40002e-006 -2.58338e-006 0.112341 -16.735 67.2525 18.9484 8.13514 25.2327 -3.47464 -170.948 12.4603 -2.70206 4.54188e-006 -4.6773e-006 -0.590797 0.681087 -10.6398 1.40849 2.20926e-006 -2.10354e-006 0.354395 11.1601 66.2913 -18.4342 -8.13645 25.2408 3.48288 
42.2483 83.6916 5.52479 -1.24653 4.72358 5.70881 0.123704 -1.04821 -0.0787645 0.245652 1.91147 -0.1728 0.249149 3.55653 -0.177098 2.97121 17.9351 11.6629 -15.417 4.67746 12.1421 66.9128 -1.12667 -1.50655 111.615 18.3172 -28.5548 3.97569e-015 -4.77083e-015 3.18055e-015 28.3161 44.5533 -12.661 -5.9447e-006 1.55864e-005 -3 8.0293 -4.95139 0.697595 -61.1676 -5.08972 3.26271 -121.047 19.9521 27.9303 7.52188e-006 -1.07262e-006 -6.94488e-007 -25.692 49.6604 14.1694 1.4649e-005 2.64687e-006 2.99999 -8.02894 -4.95123 -0.697552 177.227 15.5463 0.438066 180 -1.52572e-005 179.186 177.484 13.9552 179.408 -3.40002e-006 -2.58338e-006 0.112341 -16.7308 67.2492 18.9469 8.13514 25.2327 -3.47464 -170.937 12.4686 -2.70961 4.54188e-006 -4.6773e-006 -0.590834 0.680477 -10.6564 1.4093 2.20926e-006 -2.10354e-006 0.354478 11.1566 66.2935 -18.4377 -8.13645 25.2408 3.48288 
42.245 83.6926 5.52672 -1.24465 4.7186 5.72109 0.124568 -1.04895 -0.0782883 0.24773 1.9112 -0.1715 0.250852 3.55626 -0.175814 2.93577 17.9478 11.71 -15.4104 4.66338 12.1753 66.9028 -1.12254 -1.50334 111.62 18.3244 -28.5906 1.59028e-014 4.77083e-015 -6.36111e-015 28.3276 44.5794 -12.6743 -5.9447e-006 1.55864e-005 -3 8.0293 -4.95139 0.697595 -61.186 -5.08854 3.26315 -121.077 19.9599 27.9639 7.52188e-006 -1.07262e-006 -6.94488e-007 -25.7118 49.6505 14.1763 1.4649e-005 2.64687e-006 2.99999 -8.02894 -4.95123 -0.697552 177.24 15.5494 0.432048 180 -1.52572e-005 179.186 177.483 13.968 179.409 -3.40002e-006 -2.58338e-006 0.112341 -16.7271 67.2462 18.9455 8.13514 25.2327 -3.47464 -170.926 12.4761 -2.71698 4.54188e-006 -4.6773e-006 -0.590923 0.679777 -10.6726 1.41 2.20926e-006 -2.10354e-006 0.354593 11.1541 66.2959 -18.441 -8.13645 25.2408 3.48288 
42.2246 83.6837 5.53005 -1.2423 4.71338 5.73349 0.125378 -1.04961 -0.077868 0.249661 1.9109 -0.170352 0.252447 3.55596 -0.174681 2.9004 17.9611 11.759 -15.4036 4.64825 12.2104 66.8932 -1.1192 -1.5006 111.626 18.3317 -28.6248 4.77083e-015 1.59028e-015 6.36111e-015 28.3386 44.6042 -12.687 -5.9447e-006 1.55864e-005 -3 8.0293 -4.95139 0.697595 -61.2051 -5.08684 3.26333 -121.105 19.9677 27.9991 7.52188e-006 -1.07262e-006 -6.94488e-007 -25.7329 49.6395 14.1832 1.4649e-005 2.64687e-006 2.99999 -8.02894 -4.95123 -0.697552 177.253 15.5521 0.425861 180 -1.52572e-005 179.186 177.482 13.981 179.409 -3.40002e-006 -2.58338e-006 0.112341 -16.7238 67.2435 18.9443 8.13514 25.2327 -3.47464 -170.916 12.4825 -2.72413 4.54188e-006 -4.6773e-006 -0.591071 0.678974 -10.6882 1.41059 2.20926e-006 -2.10354e-006 0.354746 11.1528 66.2983 -18.4442 -8.13645 25.2408 3.48288 
